<?xml version="1.0" encoding="utf-8"?>
<!-- Generator: Adobe Illustrator 20.1.0, SVG Export Plug-In . SVG Version: 6.00 Build 0)  -->
<svg version="1.1" xmlns="http://www.w3.org/2000/svg" xmlns:xlink="http://www.w3.org/1999/xlink" x="0px" y="0px"
	 viewBox="0 0 680 350" style="enable-background:new 0 0 680 350;" xml:space="preserve">
<style type="text/css">
	.st0{fill:#FFFFFF;stroke:#288EEA;stroke-width:2;stroke-miterlimit:10;}
	.st1{fill:#FFFFFF;stroke:#288EEA;stroke-width:2;stroke-linecap:round;stroke-miterlimit:10;}
	.st2{fill:#288EEA;}
	.st3{fill:#FFFFFF;stroke:#288EEA;stroke-width:2;stroke-linecap:round;stroke-linejoin:round;stroke-miterlimit:10;}
	.st4{fill:none;stroke:#288EEA;stroke-width:2;stroke-linecap:round;stroke-miterlimit:7;}
	.st5{fill:none;stroke:#288EEA;stroke-width:2;stroke-linecap:round;stroke-miterlimit:5;}
	.st6{fill:none;stroke:#288EEA;stroke-width:2;stroke-linecap:round;stroke-miterlimit:10;}
	.st7{fill:#FFFFFF;stroke:#EDF5F9;stroke-width:2;stroke-linecap:round;stroke-miterlimit:10;}
	.st8{fill:#EDF5F9;}
	.st9{fill:none;stroke:#EDF5F9;stroke-width:2;stroke-linecap:round;stroke-miterlimit:10;}
	.st10{fill:none;stroke:#EDF5F9;stroke-width:2;stroke-miterlimit:10;}
	.st11{fill-rule:evenodd;clip-rule:evenodd;fill:#FFFFFF;stroke:#EDF5F9;stroke-width:2;stroke-miterlimit:10;}
	.st12{fill:#FFFFFF;stroke:#EDF5F9;stroke-width:2;stroke-miterlimit:10;}
	.st13{fill:none;stroke:#EDF5F9;stroke-linecap:round;stroke-linejoin:round;stroke-miterlimit:10;}
	.st14{fill:none;stroke:#EDF5F9;stroke-miterlimit:10;}
	.st15{fill:#FFFFFF;stroke:#C7E7FF;stroke-width:2;stroke-linecap:round;stroke-miterlimit:10;}
	.st16{fill:none;stroke:#288EEA;stroke-width:2;stroke-linecap:round;stroke-linejoin:bevel;stroke-dasharray:2.9682,9.894;}
	.st17{fill:#FFFFFF;stroke:#C7E7FF;stroke-width:2;stroke-miterlimit:10;}
	.st18{fill:#FFFFFF;}
	.st19{fill:#C7E7FF;}
	.st20{fill:#FFFFFF;stroke:#C7E7FF;stroke-miterlimit:10;}
	.st21{fill:#DDDDDD;}
	.st22{fill-rule:evenodd;clip-rule:evenodd;fill:#EDEDED;}
	.st23{fill-rule:evenodd;clip-rule:evenodd;fill:#288EEA;}
	.st24{fill-rule:evenodd;clip-rule:evenodd;fill:#80C9FF;}
	
		.st25{fill-rule:evenodd;clip-rule:evenodd;fill:none;stroke:#80C9FF;stroke-width:2;stroke-linecap:round;stroke-linejoin:round;stroke-miterlimit:10;}
	.st26{fill:#FFFFFF;stroke:#C7E7FF;stroke-linecap:round;stroke-linejoin:round;stroke-miterlimit:10;}
	.st27{fill:none;stroke:#EDEDED;stroke-miterlimit:10;}
	.st28{fill:none;stroke:#288EEA;stroke-miterlimit:10;}
</style>
<g id="Layer_1">
</g>
<g id="Layer_3">
	<g>
		<circle class="st7" cx="604.544" cy="189.171" r="31.067"/>
		<circle class="st7" cx="604.544" cy="189.171" r="31.067"/>
		<path class="st8" d="M604.544,158.104c-0.749,0-1.489,0.036-2.224,0.088c16.119,1.142,28.842,14.57,28.842,30.979
			c0,16.409-12.723,29.838-28.842,30.98c0.736,0.052,1.475,0.088,2.224,0.088c17.158,0,31.067-13.91,31.067-31.068
			C635.611,172.013,621.702,158.104,604.544,158.104z"/>
		<rect x="596.634" y="234.494" class="st7" width="15.819" height="16.063"/>
		<rect x="600.095" y="234.494" class="st8" width="12.358" height="15.519"/>
		<rect x="652.104" y="340.943" class="st9" width="6.351" height="6.738"/>
		<line class="st9" x1="638.143" y1="319.03" x2="638.143" y2="347.681"/>
		<path class="st10" d="M647.331,307.92c0,12.522-9.187,22.672-9.187,22.672s-9.188-10.151-9.188-22.672
			c0-12.521,9.188-22.671,9.188-22.671S647.331,295.398,647.331,307.92z"/>
		<circle class="st11" cx="33.694" cy="334.748" r="5.213"/>
		<line class="st9" x1="33.694" y1="337.688" x2="33.694" y2="347.681"/>
		<circle class="st11" cx="25.259" cy="326.854" r="8.395"/>
		<line class="st9" x1="25.259" y1="331.588" x2="25.259" y2="347.681"/>
		<circle class="st11" cx="648.698" cy="326.854" r="8.394"/>
		<line class="st9" x1="648.698" y1="331.588" x2="648.698" y2="347.681"/>
		<circle class="st11" cx="628.956" cy="333.915" r="5.548"/>
		<line class="st9" x1="628.956" y1="337.044" x2="628.956" y2="347.681"/>
		<circle class="st11" cx="68.28" cy="334.748" r="5.213"/>
		<line class="st9" x1="68.28" y1="337.688" x2="68.28" y2="347.681"/>
		<line class="st9" x1="59.093" y1="319.03" x2="59.093" y2="347.681"/>
		<path class="st10" d="M68.28,307.92c0,12.522-9.188,22.672-9.188,22.672s-9.187-10.151-9.187-22.672
			c0-12.521,9.187-22.671,9.187-22.671S68.28,295.398,68.28,307.92z"/>
		<path class="st12" d="M59.964,276.979c0,22.265-16.337,40.314-16.337,40.314S27.29,299.244,27.29,276.979
			c0-22.265,16.337-40.314,16.337-40.314S59.964,254.714,59.964,276.979z"/>
		<line class="st9" x1="43.628" y1="296.734" x2="43.628" y2="347.681"/>
		<rect x="513.224" y="265.417" class="st13" width="97.836" height="82.497"/>
		<rect x="523.41" y="241.777" class="st14" width="49.062" height="24.042"/>
		<rect x="523.41" y="237.223" class="st14" width="49.062" height="12.79"/>
		<rect x="529.882" y="229.26" class="st14" width="19.183" height="7.968"/>
		<line class="st13" x1="552.179" y1="274.094" x2="604.909" y2="274.094"/>
		<line class="st13" x1="552.179" y1="282.012" x2="604.909" y2="282.012"/>
		<line class="st13" x1="552.179" y1="289.931" x2="604.909" y2="289.931"/>
		<line class="st13" x1="552.179" y1="297.85" x2="604.909" y2="297.85"/>
		<line class="st13" x1="552.179" y1="305.768" x2="604.909" y2="305.768"/>
		<line class="st13" x1="552.179" y1="313.687" x2="604.909" y2="313.687"/>
		<rect x="77.884" y="274.492" class="st14" width="63.503" height="73.189"/>
		<rect x="77.884" y="260.628" class="st14" width="63.503" height="38.934"/>
		<rect x="107.342" y="260.628" class="st8" width="8.309" height="87.053"/>
		<rect x="86.261" y="236.384" class="st14" width="24.829" height="24.255"/>
		<line class="st15" x1="15" y1="347.681" x2="665" y2="347.681"/>
		<path class="st16" d="M267.404,266.838c-1.729-7.344-2.644-15.003-2.644-22.875c0-54.914,44.517-99.431,99.431-99.431
			c54.916,0,99.432,44.517,99.432,99.431c0,12.769-2.407,24.975-6.791,36.191"/>
		<g>
			<path class="st17" d="M225.04,341.648h-5.157c-4.573-0.421-8.154-4.264-8.154-8.947v-12.888h-27.744v12.888
				c0,4.683-3.581,8.525-8.154,8.947h-5.157c-1.604,0-2.903,1.299-2.903,2.903v0.484c0,1.605,1.3,2.904,2.903,2.904h54.365
				c1.604,0,2.904-1.299,2.904-2.904v-0.484C227.945,342.947,226.644,341.648,225.04,341.648z"/>
			<path class="st17" d="M293.302,318.461c0,2.648-2.147,4.794-4.793,4.794h-181.3c-2.647,0-4.794-2.146-4.794-4.794V195.846
				c0-2.648,2.146-4.794,4.794-4.794h181.3c2.647,0,4.793,2.146,4.793,4.794V318.461z"/>
			<path class="st18" d="M286.299,299.604c0,0.53-0.43,0.959-0.959,0.959H110.377c-0.53,0-0.959-0.429-0.959-0.959V197.516
				c0-0.529,0.429-0.959,0.959-0.959H285.34c0.529,0,0.959,0.429,0.959,0.959V299.604z"/>
			<path class="st19" d="M285.34,301.042H110.377c-0.793,0-1.438-0.645-1.438-1.438V197.516c0-0.793,0.645-1.438,1.438-1.438H285.34
				c0.793,0,1.438,0.645,1.438,1.438v102.087C286.778,300.397,286.133,301.042,285.34,301.042z M110.377,197.037
				c-0.265,0-0.479,0.215-0.479,0.479v102.087c0,0.264,0.214,0.479,0.479,0.479H285.34c0.264,0,0.479-0.215,0.479-0.479V197.516
				c0-0.264-0.215-0.479-0.479-0.479H110.377z"/>
			<circle class="st20" cx="197.859" cy="312.082" r="5.512"/>
			<path class="st2" d="M149.584,221.486c-16.027,0-29.02,12.993-29.02,29.021c0,16.026,12.993,29.019,29.02,29.019
				c16.027,0,29.02-12.993,29.02-29.019C178.604,234.479,165.611,221.486,149.584,221.486z M160.38,261.303
				c-0.917,0.917-2.404,0.917-3.321,0l-7.476-7.477l-7.476,7.477c-0.917,0.917-2.404,0.917-3.32,0
				c-0.918-0.918-0.918-2.404-0.001-3.322l7.476-7.476l-7.475-7.475c-0.917-0.917-0.917-2.404,0.001-3.321
				c0.917-0.918,2.404-0.918,3.321-0.001l7.475,7.476l7.476-7.476c0.917-0.917,2.404-0.917,3.321,0.001
				c0.917,0.916,0.917,2.404,0,3.32l-7.476,7.476l7.476,7.476C161.298,258.899,161.298,260.386,160.38,261.303z"/>
			<rect x="194.264" y="228.566" class="st21" width="79.752" height="1.411"/>
			<rect x="194.264" y="238.925" class="st21" width="52.024" height="1.411"/>
			<rect x="194.264" y="259.643" class="st21" width="41.484" height="1.411"/>
			<rect x="194.264" y="270.002" class="st21" width="57.302" height="1.411"/>
			<g>
				<rect x="194.264" y="249.284" class="st21" width="52.024" height="1.411"/>
				<rect x="248.929" y="249.284" class="st21" width="14.854" height="1.411"/>
			</g>
		</g>
		<circle class="st18" cx="434.64" cy="143.266" r="0.569"/>
		<circle class="st18" cx="432.393" cy="143.266" r="0.569"/>
		<circle class="st18" cx="430.146" cy="143.266" r="0.569"/>
		<circle class="st22" cx="443.412" cy="136.855" r="1.146"/>
		<circle class="st22" cx="524.502" cy="156.705" r="1.146"/>
		<circle class="st22" cx="489.697" cy="144.046" r="1.146"/>
		<circle class="st23" cx="435.209" cy="129.345" r="1.146"/>
		<circle class="st23" cx="484.477" cy="140.465" r="1.146"/>
		<circle class="st23" cx="555.101" cy="196.16" r="1.146"/>
		<circle class="st23" cx="517.923" cy="179.295" r="1.146"/>
		<g>
			<path class="st24" d="M353.081,113.806c0,0.463,0.375,0.839,0.839,0.839l0,0c0.463,0,0.839-0.375,0.839-0.839v-4.075
				c0-0.463-0.375-0.839-0.839-0.839l0,0c-0.464,0-0.839,0.375-0.839,0.839V113.806z"/>
			<path class="st24" d="M353.081,121.756c0,0.464,0.375,0.839,0.839,0.839l0,0c0.463,0,0.839-0.375,0.839-0.839v-4.074
				c0-0.464-0.375-0.839-0.839-0.839l0,0c-0.464,0-0.839,0.375-0.839,0.839V121.756z"/>
			<path class="st24" d="M351.983,116.443c0.463,0,0.839-0.375,0.839-0.839l0,0c0-0.463-0.375-0.839-0.839-0.839h-4.074
				c-0.463,0-0.839,0.375-0.839,0.839l0,0c0,0.464,0.375,0.839,0.839,0.839H351.983z"/>
			<path class="st24" d="M359.932,116.443c0.463,0,0.839-0.375,0.839-0.839l0,0c0-0.463-0.375-0.839-0.839-0.839h-4.074
				c-0.464,0-0.839,0.375-0.839,0.839l0,0c0,0.464,0.375,0.839,0.839,0.839H359.932z"/>
		</g>
		<g>
			<path class="st24" d="M431.554,104.979c0,0.464,0.374,0.839,0.839,0.839l0,0c0.462,0,0.839-0.375,0.839-0.839v-4.074
				c0-0.464-0.376-0.839-0.839-0.839l0,0c-0.464,0-0.839,0.375-0.839,0.839V104.979z"/>
			<path class="st24" d="M431.554,112.929c0,0.463,0.374,0.839,0.839,0.839l0,0c0.462,0,0.839-0.375,0.839-0.839v-4.075
				c0-0.463-0.376-0.839-0.839-0.839l0,0c-0.464,0-0.839,0.375-0.839,0.839V112.929z"/>
			<path class="st24" d="M430.455,107.616c0.464,0,0.839-0.375,0.839-0.839l0,0c0-0.463-0.374-0.839-0.839-0.839h-4.074
				c-0.462,0-0.839,0.375-0.839,0.839l0,0c0,0.463,0.376,0.839,0.839,0.839H430.455z"/>
			<path class="st24" d="M438.405,107.616c0.463,0,0.839-0.375,0.839-0.839l0,0c0-0.463-0.376-0.839-0.839-0.839h-4.074
				c-0.464,0-0.839,0.375-0.839,0.839l0,0c0,0.463,0.375,0.839,0.839,0.839H438.405z"/>
		</g>
		<g>
			<path class="st22" d="M532.701,183.669c0,0.344,0.279,0.623,0.624,0.623l0,0c0.344,0,0.623-0.279,0.623-0.623v-3.029
				c0-0.345-0.279-0.624-0.623-0.624l0,0c-0.345,0-0.624,0.279-0.624,0.624V183.669z"/>
			<path class="st22" d="M532.701,189.579c0,0.345,0.279,0.624,0.624,0.624l0,0c0.344,0,0.623-0.279,0.623-0.624v-3.029
				c0-0.344-0.279-0.623-0.623-0.623l0,0c-0.345,0-0.624,0.279-0.624,0.623V189.579z"/>
			<path class="st22" d="M531.885,185.629c0.344,0,0.624-0.279,0.624-0.624l0,0c0-0.344-0.279-0.624-0.624-0.624h-3.03
				c-0.345,0-0.624,0.279-0.624,0.624l0,0c0,0.345,0.279,0.624,0.624,0.624H531.885z"/>
			<path class="st22" d="M537.794,185.629c0.345,0,0.624-0.279,0.624-0.624l0,0c0-0.344-0.279-0.624-0.624-0.624h-3.029
				c-0.345,0-0.624,0.279-0.624,0.624l0,0c0,0.345,0.279,0.624,0.624,0.624H537.794z"/>
		</g>
		<g>
			<path class="st22" d="M271.886,143.091c0,0.344,0.279,0.623,0.624,0.623l0,0c0.345,0,0.624-0.279,0.624-0.623v-3.029
				c0-0.345-0.279-0.624-0.624-0.624l0,0c-0.345,0-0.624,0.279-0.624,0.624V143.091z"/>
			<path class="st22" d="M271.886,149.001c0,0.345,0.279,0.624,0.624,0.624l0,0c0.345,0,0.624-0.279,0.624-0.624v-3.029
				c0-0.345-0.279-0.624-0.624-0.624l0,0c-0.345,0-0.624,0.279-0.624,0.624V149.001z"/>
			<path class="st22" d="M271.07,145.051c0.344,0,0.623-0.279,0.623-0.624l0,0c0-0.344-0.279-0.624-0.623-0.624h-3.029
				c-0.345,0-0.624,0.279-0.624,0.624l0,0c0,0.345,0.279,0.624,0.624,0.624H271.07z"/>
			<path class="st22" d="M276.98,145.051c0.345,0,0.624-0.279,0.624-0.624l0,0c0-0.344-0.279-0.624-0.624-0.624h-3.029
				c-0.344,0-0.623,0.279-0.623,0.624l0,0c0,0.345,0.279,0.624,0.623,0.624H276.98z"/>
		</g>
		<g>
			<path class="st22" d="M309.759,193.573c0,0.344,0.279,0.623,0.624,0.623l0,0c0.345,0,0.624-0.279,0.624-0.623v-3.029
				c0-0.345-0.279-0.624-0.624-0.624l0,0c-0.345,0-0.624,0.279-0.624,0.624V193.573z"/>
			<path class="st22" d="M309.759,199.483c0,0.344,0.279,0.624,0.624,0.624l0,0c0.345,0,0.624-0.279,0.624-0.624v-3.029
				c0-0.345-0.279-0.624-0.624-0.624l0,0c-0.345,0-0.624,0.279-0.624,0.624V199.483z"/>
			<path class="st22" d="M308.942,195.533c0.344,0,0.623-0.279,0.623-0.624l0,0c0-0.345-0.279-0.623-0.623-0.623h-3.029
				c-0.344,0-0.623,0.279-0.623,0.623l0,0c0,0.345,0.279,0.624,0.623,0.624H308.942z"/>
			<path class="st22" d="M314.852,195.533c0.345,0,0.624-0.279,0.624-0.624l0,0c0-0.345-0.279-0.623-0.624-0.623h-3.029
				c-0.344,0-0.624,0.279-0.624,0.623l0,0c0,0.345,0.279,0.624,0.624,0.624H314.852z"/>
		</g>
		<g>
			<path class="st25" d="M492.48,166.575h12.257c0.435-1.195,1.19-2.236,2.163-3.018c-0.696-1.219-1.099-2.627-1.099-4.132
				c0-4.612,3.738-8.351,8.35-8.351c0.596,0,1.177,0.065,1.738,0.184c0.986-9.22,8.788-16.4,18.269-16.4
				c10.149,0,18.375,8.227,18.375,18.376c0,1.102-0.103,2.18-0.289,3.229c4.771,0.422,8.512,4.423,8.512,9.302
				c0,0.274-0.019,0.543-0.041,0.811h7.089"/>
		</g>
		<g>
			<path class="st25" d="M443.225,152.154h20.342c0.322-0.881,0.878-1.648,1.595-2.225c-0.513-0.899-0.811-1.937-0.811-3.046
				c0-3.399,2.756-6.155,6.155-6.155c0.44,0,0.868,0.048,1.281,0.136c0.727-6.796,6.479-12.089,13.467-12.089
				c7.48,0,13.545,6.064,13.545,13.545c0,0.813-0.077,1.607-0.214,2.38c3.517,0.311,6.274,3.26,6.274,6.857
				c0,0.202-0.013,0.4-0.031,0.598h5.226"/>
		</g>
		<path class="st25" d="M150.816,129.117h10.097c0.321-0.881,0.878-1.648,1.594-2.225c-0.513-0.899-0.81-1.937-0.81-3.046
			c0-3.399,2.755-6.155,6.155-6.155c0.44,0,0.867,0.048,1.281,0.136c0.727-6.796,6.478-12.089,13.466-12.089
			c7.481,0,13.545,6.064,13.545,13.545c0,0.813-0.076,1.607-0.213,2.38c0.039,0.003,0.077,0.012,0.116,0.016
			c2.371-3.931,6.672-6.565,11.596-6.565c7.481,0,13.545,6.064,13.545,13.545c0,0.813-0.076,1.607-0.212,2.38
			c3.516,0.311,6.273,3.26,6.273,6.857c0,0.202-0.013,0.4-0.03,0.598h19.754"/>
		<path class="st25" d="M116.891,135.573h5.295c0.168-0.462,0.461-0.864,0.836-1.167c-0.269-0.471-0.424-1.015-0.424-1.597
			c0-1.783,1.445-3.228,3.227-3.228c0.23,0,0.454,0.025,0.671,0.071c0.381-3.563,3.397-6.339,7.06-6.339
			c3.923,0,7.102,3.18,7.102,7.102c0,0.426-0.039,0.843-0.11,1.248c0.021,0.001,0.039,0.006,0.06,0.008
			c1.243-2.061,3.499-3.442,6.081-3.442c3.923,0,7.102,3.179,7.102,7.102c0,0.426-0.04,0.843-0.111,1.248
			c1.843,0.163,3.289,1.709,3.289,3.595c0,0.106-0.007,0.21-0.016,0.313h10.358"/>
		<path class="st25" d="M42.068,203.311h5.294c0.169-0.462,0.461-0.864,0.836-1.167c-0.269-0.471-0.424-1.015-0.424-1.597
			c0-1.783,1.445-3.228,3.227-3.228c0.23,0,0.454,0.025,0.671,0.071c0.381-3.563,3.397-6.339,7.06-6.339
			c3.923,0,7.102,3.18,7.102,7.102c0,0.426-0.039,0.843-0.111,1.248c0.021,0.001,0.039,0.006,0.06,0.008
			c1.243-2.061,3.499-3.443,6.081-3.443c3.923,0,7.102,3.179,7.102,7.102c0,0.426-0.04,0.843-0.111,1.248
			c1.843,0.163,3.289,1.709,3.289,3.595c0,0.106-0.007,0.21-0.016,0.313h10.358"/>
		<g>
			<g>
				<g>
					<path class="st19" d="M455.206,339.366H297.02v-92.994c0-4.757,3.871-8.628,8.628-8.628h140.929
						c4.758,0,8.628,3.871,8.628,8.628V339.366z M298.938,337.449h154.351v-91.076c0-3.701-3.011-6.711-6.711-6.711H305.649
						c-3.7,0-6.711,3.01-6.711,6.711V337.449z"/>
				</g>
				<g>
					<path class="st19" d="M448.095,338.565H305.569v-95.231h142.526V338.565z M306.528,337.606h140.609v-93.313H306.528V337.606z"
						/>
				</g>
				<g>
					<path class="st19" d="M467.509,349.109H284.716c-4.229,0-7.67-3.442-7.67-7.67c0-1.215,0.282-2.382,0.836-3.472l0.267-0.522
						h195.926l0.266,0.522c0.555,1.092,0.837,2.258,0.837,3.472C475.179,345.667,471.738,349.109,467.509,349.109z M279.355,339.363
						c-0.259,0.663-0.391,1.359-0.391,2.077c0,3.172,2.58,5.752,5.752,5.752h182.793c3.172,0,5.752-2.58,5.752-5.752
						c0-0.717-0.132-1.414-0.392-2.077H279.355z"/>
				</g>
				<g>
					<path class="st19" d="M389.595,342.398h-26.964v-4.473h26.964V342.398z M363.59,341.439h25.046v-2.556H363.59V341.439z"/>
				</g>
			</g>
			<rect x="316.67" y="272.667" class="st21" width="22.929" height="1.411"/>
			<rect x="316.67" y="279.496" class="st21" width="22.929" height="1.411"/>
			<g>
				<rect x="316.67" y="286.325" class="st21" width="16.777" height="1.411"/>
				<rect x="335.244" y="286.325" class="st21" width="5.093" height="1.411"/>
			</g>
			<g>
				<rect x="316.67" y="293.154" class="st21" width="10.805" height="1.412"/>
				<rect x="329.532" y="293.154" class="st21" width="10.805" height="1.412"/>
			</g>
			<g>
				<rect x="316.67" y="299.983" class="st21" width="6.171" height="1.412"/>
				<rect x="323.74" y="299.983" class="st21" width="16.597" height="1.412"/>
			</g>
			<rect x="316.67" y="306.813" class="st21" width="10.805" height="1.41"/>
			<rect x="316.67" y="313.642" class="st21" width="16.258" height="1.41"/>
			<rect x="417.832" y="272.667" class="st21" width="22.929" height="1.411"/>
			<rect x="417.832" y="279.496" class="st21" width="22.929" height="1.411"/>
			<g>
				<rect x="423.984" y="286.325" class="st21" width="16.777" height="1.411"/>
				<rect x="417.093" y="286.325" class="st21" width="5.093" height="1.411"/>
			</g>
			<g>
				<rect x="429.956" y="293.154" class="st21" width="10.805" height="1.412"/>
				<rect x="417.093" y="293.154" class="st21" width="10.806" height="1.412"/>
			</g>
			<g>
				<rect x="434.589" y="299.983" class="st21" width="6.172" height="1.412"/>
				<rect x="417.093" y="299.983" class="st21" width="16.597" height="1.412"/>
			</g>
			<rect x="429.956" y="306.813" class="st21" width="10.805" height="1.41"/>
			<rect x="424.503" y="313.642" class="st21" width="16.258" height="1.41"/>
			<rect x="316.67" y="265.838" class="st21" width="32.516" height="1.411"/>
			<rect x="408.409" y="265.838" class="st21" width="32.517" height="1.411"/>
			<path class="st2" d="M378.607,264.192c-16.027,0-29.02,12.993-29.02,29.021c0,16.026,12.993,29.02,29.02,29.02
				s29.02-12.993,29.02-29.02C407.628,277.185,394.635,264.192,378.607,264.192z M389.404,304.01c-0.917,0.917-2.403,0.917-3.321,0
				l-7.477-7.477l-7.475,7.477c-0.917,0.915-2.404,0.915-3.32,0c-0.918-0.918-0.918-2.404-0.001-3.322l7.476-7.477l-7.475-7.475
				c-0.917-0.917-0.917-2.404,0-3.321c0.917-0.918,2.404-0.918,3.321,0l7.475,7.476l7.477-7.476
				c0.917-0.917,2.403-0.917,3.321,0.001c0.917,0.917,0.917,2.404,0,3.32l-7.476,7.475l7.477,7.477
				C390.322,301.606,390.322,303.093,389.404,304.01z"/>
		</g>
		<g>
			<path class="st17" d="M310.383,342.564c0,3.009-2.439,5.449-5.448,5.449h-57.391c-3.008,0-5.448-2.44-5.448-5.449v-82.147
				c0-3.009,2.44-5.448,5.448-5.448h57.391c3.009,0,5.448,2.439,5.448,5.448V342.564z"/>
			<path class="st20" d="M306.16,333.849c0,0.602-0.488,1.09-1.09,1.09h-57.663c-0.602,0-1.089-0.488-1.089-1.09v-74.233
				c0-0.601,0.488-1.089,1.089-1.089h57.663c0.602,0,1.09,0.488,1.09,1.089V333.849z"/>
			<path class="st2" d="M305.07,258.527h-57.663c-0.602,0-1.089,0.301-1.089,0.673v45.845c0,0.372,0.488,0.673,1.089,0.673h57.663
				c0.602,0,1.09-0.302,1.09-0.673V259.2C306.16,258.828,305.672,258.527,305.07,258.527z M287.035,292.92
				c-0.917,0.917-2.404,0.917-3.321,0l-7.476-7.477l-7.476,7.477c-0.917,0.916-2.404,0.916-3.32,0
				c-0.918-0.918-0.918-2.404-0.001-3.322l7.476-7.476l-7.475-7.475c-0.917-0.917-0.917-2.404,0-3.321
				c0.917-0.917,2.404-0.917,3.321,0l7.475,7.476l7.476-7.476c0.917-0.917,2.404-0.917,3.321,0.001c0.917,0.917,0.917,2.404,0,3.32
				l-7.476,7.476l7.476,7.476C287.953,290.516,287.953,292.002,287.035,292.92z"/>
			<rect x="251.159" y="313.491" class="st21" width="32.516" height="1.412"/>
			<rect x="251.159" y="318.764" class="st21" width="18.323" height="1.412"/>
			<rect x="251.159" y="324.036" class="st21" width="25.08" height="1.412"/>
			<path class="st20" d="M284.582,341.366c0,1.29-1.046,2.337-2.337,2.337H270.86c-1.291,0-2.337-1.047-2.337-2.337l0,0
				c0-1.29,1.046-2.337,2.337-2.337h11.385C283.535,339.029,284.582,340.076,284.582,341.366L284.582,341.366z"/>
		</g>
		<path class="st2" d="M325.221,229.294c-0.445,0.444-1.166,0.444-1.61,0l0,0c-0.444-0.445-0.444-1.166,0-1.61l5.338-5.338
			c0.445-0.445,1.166-0.445,1.61,0l0,0c0.445,0.445,0.445,1.166,0,1.61L325.221,229.294z"/>
		<path class="st2" d="M305.004,223.955c-0.444-0.445-0.444-1.166,0-1.61l0,0c0.445-0.445,1.166-0.445,1.61,0l5.339,5.338
			c0.444,0.444,0.444,1.166,0,1.61l0,0c-0.445,0.445-1.166,0.445-1.61,0L305.004,223.955z"/>
		<path class="st2" d="M318.921,224.233c0,0.629-0.51,1.138-1.139,1.138l0,0c-0.629,0-1.138-0.51-1.138-1.138v-7.55
			c0-0.628,0.51-1.138,1.138-1.138l0,0c0.629,0.001,1.138,0.51,1.139,1.138V224.233z"/>
		<path class="st2" d="M103.995,181.713c0,0.629-0.51,1.138-1.138,1.139l0,0c-0.629,0-1.139-0.51-1.139-1.139v-7.549
			c0-0.629,0.51-1.139,1.139-1.139l0,0c0.629,0,1.138,0.51,1.138,1.138V181.713z"/>
		<path class="st2" d="M85.925,192.233c-0.629,0-1.139-0.51-1.139-1.138l0,0c0-0.629,0.51-1.139,1.139-1.139h7.549
			c0.628,0,1.139,0.51,1.139,1.138l0,0c0,0.629-0.51,1.139-1.139,1.139H85.925z"/>
		<path class="st2" d="M95.962,182.59c0.444,0.445,0.444,1.166,0,1.61l0,0c-0.445,0.444-1.165,0.444-1.61,0l-5.339-5.338
			c-0.444-0.445-0.444-1.166,0-1.61l0,0c0.445-0.444,1.166-0.444,1.611-0.001L95.962,182.59z"/>
		<g>
			<path class="st20" d="M353.986,168.306c-0.375,0.374-0.982,0.374-1.356,0l-3.389-3.39c-0.375-0.374-0.375-0.982,0-1.356
				l10.972-10.973c0.374-0.375,0.982-0.375,1.356,0l3.39,3.39c0.374,0.374,0.374,0.981,0,1.356L353.986,168.306z"/>
			
				<rect x="360.976" y="148.3" transform="matrix(0.7071 -0.7072 0.7072 0.7071 0.9391 303.5842)" class="st19" width="11.824" height="4.717"/>
			
				<ellipse transform="matrix(0.7071 -0.7071 0.7071 0.7071 11.1674 307.7981)" class="st17" cx="377.129" cy="140.419" rx="13.825" ry="13.825"/>
			<path class="st26" d="M384.609,132.938c4.131,4.131,4.131,10.829,0,14.961c-0.952,0.952-2.04,1.684-3.202,2.198"/>
		</g>
		<circle class="st17" cx="367.358" cy="176.899" r="3.167"/>
		<circle class="st17" cx="77.884" cy="215.545" r="3.167"/>
		<circle class="st27" cx="406.387" cy="141.518" r="3.167"/>
		<circle class="st17" cx="211.32" cy="159.208" r="3.167"/>
		<circle class="st27" cx="250.348" cy="123.827" r="3.167"/>
		<circle class="st28" cx="510.056" cy="200.107" r="3.167"/>
		<rect x="513.224" y="264.666" class="st8" width="29.369" height="83.247"/>
		<path class="st8" d="M612.019,348.872h-99.754v-84.414h99.754V348.872z M514.182,346.954h95.919v-80.579h-95.919V346.954z"/>
		<line class="st7" x1="582.187" y1="210.736" x2="596.634" y2="234.494"/>
		<line class="st7" x1="626.901" y1="210.736" x2="612.453" y2="234.494"/>
		<g>
			<path class="st18" d="M472.782,320.301c0-5.971,1.029-11.735,2.893-17.137c-3.893-7.117-11.49-12.795-20.131-11.944
				c-28.002,2.756-21.411,35.472-19.549,40.202l-15.24-24.202c-2.469-3.919-7.649-5.097-11.569-2.627
				c-0.583,0.367-1.098,0.799-1.557,1.275c0,0,31.132,43.731,30.978,42.314c5.386-14.47,25.095-18.395,36.719-11.759
				C473.679,331.317,472.782,325.898,472.782,320.301z"/>
			<path class="st8" d="M455.544,291.22c-7.883,0.777-13.024,3.926-16.302,8.16c0.97,8.376,2.854,20.968,5.896,27.156
				c-0.876,0.876-8.267,7.894-9.907,17.506c2.096,2.788,3.408,4.434,3.376,4.14c5.386-14.47,25.095-18.395,36.719-11.759
				c-1.648-5.106-2.545-10.525-2.545-16.122c0-5.971,1.029-11.735,2.893-17.137C471.782,296.047,464.185,290.369,455.544,291.22z"/>
			<path class="st2" d="M438.591,349.174c-0.708,0-1.001,0-16.564-21.571c-7.553-10.469-15.103-21.073-15.178-21.18l-0.462-0.648
				l0.553-0.573c0.535-0.554,1.119-1.034,1.737-1.421c1.494-0.942,3.214-1.44,4.973-1.44c3.236,0,6.195,1.633,7.917,4.367
				l12.175,19.333c-1.079-6.582-1.542-17.219,3.386-25.28c3.751-6.138,9.918-9.668,18.323-10.496
				c0.601-0.059,1.211-0.089,1.815-0.089c9.142,0,15.938,6.471,19.251,12.528l0.203,0.371l-0.138,0.401
				c-1.886,5.464-2.841,11.124-2.841,16.824c0,5.363,0.841,10.688,2.498,15.828l0.758,2.352l-2.146-1.225
				c-3.44-1.964-7.653-3.002-12.184-3.002c-8.181,0-19.095,3.685-23.082,14.053l0.022,0.197l-0.577,0.667L438.591,349.174z
				 M408.896,305.993c10.439,14.658,25.508,35.603,29.386,40.458c4.673-10.385,15.905-14.115,24.385-14.115
				c4.011,0,7.803,0.764,11.102,2.226c-1.292-4.657-1.945-9.445-1.945-14.263c0-5.771,0.944-11.503,2.807-17.041
				c-4.179-7.342-11.738-11.804-18.991-11.085c-7.775,0.766-13.454,3.99-16.875,9.587c-6.656,10.887-2.852,26.827-1.875,29.308
				l-1.703,0.863l-15.24-24.202c-1.369-2.174-3.722-3.472-6.295-3.472c-1.397,0-2.764,0.397-3.952,1.144
				C409.422,305.578,409.154,305.774,408.896,305.993z"/>
			<path class="st18" d="M612.457,336.672c0,0-25.478-3.646-49.212-10.546c-27.483-7.99-31.67-16.798-33.875-23.968
				c-2.205-7.17-31.398-102.102-31.398-102.102c-5.203-17.17-8.868-26.364-30.918-26.364c-15.21,0-27.845,6.433-30.428,20.9
				l-17.867,4.985c-4.619,1.329-8.748,3.917-8.748,8.748c0,4.831,3.917,8.748,8.748,8.748h5.743
				c-0.068,0.31-0.111,0.629-0.111,0.959c0,2.449,1.985,4.434,4.434,4.434c0,0,9.442,0,18.831,0c9.39,0,8.531,10.346,8.531,10.346
				c-2.556,18.375-17.575,28.282-17.575,63.65c0,26.666,21.606,48.285,48.268,48.308l19.799,0.21H611.06h1.397
				c2.295,0,4.155-1.859,4.155-4.153C616.612,338.531,614.752,336.672,612.457,336.672z"/>
			<path class="st8" d="M604.129,339.632c-0.719,0-83.768,1.526-120.526-7.385c-25.698-6.232-38.604-34.055-44.045-50.235
				c-0.595,4.312-0.945,9.084-0.945,14.45c0,26.666,21.606,48.285,48.268,48.308l19.799,0.21H611.06h1.397
				c2.295,0,4.155-1.859,4.155-4.153c0-0.799-0.237-1.539-0.627-2.172C610.854,338.57,604.566,339.632,604.129,339.632z"/>
			<path class="st8" d="M455.23,237.521c19.69-3.666,43.522-23.399,43.522-23.399s-17.097,5.113-27.263,9.108
				c-10.167,3.994-14.44-3.436-14.44-3.436h-32.287c0.682,1.571,2.243,2.671,4.065,2.671c0,0,9.442,0,18.831,0
				c9.39,0,8.531,10.346,8.531,10.346C455.962,234.442,455.634,236.002,455.23,237.521z"/>
			<path class="st2" d="M612.457,345.939H506.681l-19.809-0.21c-27.135-0.022-49.218-22.123-49.218-49.266
				c0-22.226,5.801-34.344,10.918-45.036c3.07-6.413,5.72-11.952,6.666-18.745l0,0c-0.002,0,0.323-4.491-2.167-7.187
				c-1.267-1.372-3.089-2.068-5.414-2.068h-18.831c-2.973,0-5.393-2.419-5.393-5.393h-4.674c-5.353,0-9.707-4.354-9.707-9.707
				c0-4.548,3.266-7.892,9.442-9.669l17.301-4.827c2.68-13.417,14.035-21.096,31.259-21.096c22.543,0,26.602,9.772,31.836,27.045
				l31.397,102.099c2.233,7.263,6.828,15.654,33.226,23.329c22.823,6.634,47.586,10.299,49.017,10.508
				c2.786,0.037,5.041,2.316,5.041,5.112C617.57,343.645,615.277,345.939,612.457,345.939z M467.054,174.651
				c-16.457,0-27.203,7.33-29.484,20.11l-0.105,0.593l-18.448,5.146c-5.337,1.536-8.047,4.169-8.047,7.825
				c0,4.295,3.494,7.789,7.79,7.789h6.937l-0.258,1.166c-0.06,0.268-0.088,0.514-0.088,0.752c0,1.916,1.559,3.475,3.475,3.475
				h18.831c2.887,0,5.187,0.907,6.832,2.695c3.062,3.326,2.673,8.472,2.655,8.689c-0.991,7.142-3.834,13.078-6.841,19.362
				c-5.03,10.508-10.731,22.418-10.731,44.208c0,26.087,21.224,47.328,47.312,47.349l19.807,0.21h105.766
				c1.762,0,3.196-1.432,3.196-3.194s-1.434-3.196-3.196-3.196l-0.135-0.009c-0.256-0.036-25.818-3.734-49.345-10.574
				c-27.315-7.941-32.143-16.865-34.523-24.606l-31.398-102.103C491.799,182.989,488.327,174.651,467.054,174.651z"/>
			<g>
				<path class="st18" d="M424.503,217.074c0,0,20.362,0,23.458,0c3.095,0,3.994-0.998,4.234-3.835"/>
				<path class="st2" d="M447.961,218.032h-23.458c-0.53,0-0.959-0.429-0.959-0.959c0-0.529,0.429-0.959,0.959-0.959h23.458
					c2.631,0,3.085-0.666,3.279-2.957c0.045-0.528,0.516-0.925,1.036-0.875c0.528,0.045,0.919,0.508,0.874,1.036
					C452.859,216.755,451.453,218.032,447.961,218.032z"/>
			</g>
			<g>
				<circle class="st2" cx="418.8" cy="205.489" r="1.158"/>
			</g>
			<g>
				<path class="st18" d="M459.216,196.635c0,0,3.605,1.384,5.779,0.539c2.951-1.148,3.546-4.393,3.546-4.393"/>
				<path class="st2" d="M463.279,198.408c-2.045,0-4.107-0.762-4.407-0.877c-0.494-0.19-0.741-0.744-0.551-1.238
					c0.189-0.494,0.742-0.742,1.238-0.552c0.91,0.347,3.593,1.123,5.087,0.54c2.425-0.943,2.945-3.645,2.951-3.672
					c0.095-0.521,0.595-0.864,1.116-0.77c0.521,0.095,0.865,0.594,0.77,1.115c-0.028,0.154-0.73,3.788-4.142,5.114
					C464.707,198.314,463.995,198.408,463.279,198.408z"/>
			</g>
			<g>
				<path class="st18" d="M481.551,281.058c0.79,6.777,1.075,14.805,0.673,24.312"/>
				<path class="st2" d="M483.182,305.411l-1.916-0.081c0.38-8.973,0.155-17.102-0.667-24.162l1.904-0.221
					C483.337,288.107,483.566,296.339,483.182,305.411z"/>
			</g>
			<g>
				<path class="st18" d="M470.393,276.742c-10.437-9.625-20.356-25.455-20.356-25.455s-0.098-9.21,0.399-11.607
					c1.359-6.544,2.7-2.577,9.571-4.814c6.871-2.237,42.743-25.213,46.976-22.816l3.692,12.454c0,0-16.429,3.835-10.705,20.108
					c4.647,13.216,2.556,38.493-16.035,39.346c-1.684,0.079-3.499-0.408-5.38-1.315"/>
				<path class="st2" d="M483.584,284.926c-1.661,0-3.49-0.477-5.445-1.419c-0.477-0.229-0.678-0.802-0.448-1.28
					c0.23-0.478,0.805-0.679,1.279-0.447c1.822,0.877,3.486,1.292,4.92,1.221c5.364-0.246,9.608-2.631,12.614-7.089
					c5.537-8.209,5.65-22.199,2.561-30.981c-1.805-5.13-1.681-9.624,0.367-13.358c2.686-4.899,7.882-7.023,10.049-7.723
					l-3.278-11.057c-3.211-0.389-20.112,9.096-29.342,14.289c-7.478,4.207-13.935,7.841-16.558,8.695
					c-2.731,0.889-4.623,0.856-6.005,0.828c-1.939-0.04-2.236-0.041-2.924,3.269c-0.377,1.82-0.405,8.402-0.382,11.13
					c1.256,1.967,10.502,16.228,20.049,25.033c0.389,0.359,0.414,0.965,0.056,1.355c-0.359,0.389-0.967,0.413-1.356,0.055
					c-10.411-9.602-20.418-25.491-20.518-25.651c-0.094-0.149-0.144-0.322-0.146-0.499c-0.004-0.381-0.094-9.342,0.419-11.813
					c0.923-4.448,2.048-4.855,4.838-4.797c1.24,0.022,2.95,0.055,5.375-0.734c2.443-0.795,9.13-4.559,16.211-8.543
					c17.151-9.651,28.613-15.85,31.535-14.196c0.215,0.122,0.376,0.324,0.447,0.562l3.692,12.454
					c0.075,0.253,0.041,0.525-0.09,0.754c-0.133,0.228-0.354,0.391-0.611,0.452c-0.067,0.016-6.833,1.667-9.787,7.07
					c-1.768,3.233-1.846,7.199-0.232,11.787c3.201,9.102,3.314,23.652-2.781,32.691c-3.364,4.987-8.113,7.656-14.115,7.932
					C483.848,284.922,483.717,284.926,483.584,284.926z"/>
			</g>
			<path class="st8" d="M493.718,262.058c0,0,3.436,7.669-1.678,11.424c-5.113,3.755-27.181,18.376-27.181,18.376
				s0.337,1.818-0.941,3.026c-1.278,1.208-4.793,0.071-4.314-0.959c0.479-1.03,30.159-21.402,30.818-24.597
				C491.082,266.132,494.278,265.653,493.718,262.058z"/>
			<g>
				<path class="st2" d="M442.308,270.24c-0.253,0-0.507-0.1-0.695-0.299c-0.507-0.535-12.494-13.229-17.773-24.746
					c-5.549-12.108,3.365-18.233,3.457-18.293c0.44-0.295,1.035-0.175,1.329,0.266c0.292,0.44,0.174,1.034-0.264,1.328l0,0
					c-0.314,0.212-7.63,5.315-2.779,15.901c5.145,11.224,17.298,24.096,17.421,24.224c0.364,0.384,0.349,0.991-0.035,1.356
					C442.783,270.153,442.546,270.24,442.308,270.24z"/>
			</g>
			<g>
				<path class="st2" d="M440.93,252.247c-0.117,0-0.236-0.022-0.351-0.067c-7.658-3.016-12.08-12.553-12.266-12.957
					c-0.219-0.482-0.008-1.05,0.474-1.27c0.482-0.22,1.051-0.009,1.272,0.473c0.041,0.092,4.292,9.24,11.223,11.969
					c0.493,0.194,0.735,0.751,0.541,1.243C441.673,252.016,441.312,252.247,440.93,252.247z"/>
			</g>
			<g>
				<path class="st2" d="M425.645,247.666c-0.079,0-0.16-0.01-0.242-0.031c-0.512-0.133-0.82-0.656-0.686-1.169
					c0.133-0.511,3.33-12.552,10.045-14.726c0.506-0.164,1.045,0.113,1.208,0.617c0.163,0.504-0.112,1.044-0.616,1.207
					c-5.726,1.854-8.751,13.269-8.781,13.384C426.461,247.38,426.072,247.666,425.645,247.666z"/>
			</g>
			<g>
				<path class="st2" d="M427.481,234.8c-0.332,0-0.656-0.172-0.832-0.481c-0.264-0.458-0.108-1.042,0.35-1.307
					c0.135-0.078,3.376-1.918,8.147-1.473c0.528,0.049,0.916,0.516,0.867,1.043c-0.049,0.527-0.513,0.919-1.043,0.866
					c-4.133-0.38-6.986,1.209-7.014,1.225C427.806,234.76,427.642,234.8,427.481,234.8z"/>
			</g>
			<path class="st18" d="M485.951,290.024c-4.884,3.427-8.319,8.865-9.002,15.265c-1.254,11.757,7.262,22.307,19.021,23.561
				c1.866,0.199,9.058,1.17,11.957,1.64l-1.911,7.745c0,0-24.795,0.096-31.144,0.096s-7.79,9.774-7.79,9.774l43.235-0.009
				l10.99-17.629c-18.133-18.32-5.364-27.673-1.263-31.109l-6.072-6.346"/>
			<path class="st8" d="M521.307,330.466c-18.133-18.32-5.364-27.673-1.263-31.109l-3.326-3.475
				c-4.037,3.659-9.35,9.649-9.864,16.188c-0.839,10.666,7.568,22.769,7.568,22.769l-7.628,9.428h-38.646
				c-0.799,2.048-1.065,3.839-1.065,3.839l43.235-0.009L521.307,330.466z"/>
			<path class="st2" d="M465.971,349.064l0.162-1.099c0.064-0.433,1.646-10.592,8.74-10.592c5.691,0,26.208-0.077,30.392-0.092
				l1.482-6.005c-3.344-0.508-9.298-1.303-10.878-1.472c-12.266-1.309-21.18-12.351-19.872-24.615
				c0.685-6.423,4.113-12.235,9.404-15.948c0.434-0.305,1.032-0.198,1.335,0.234c0.305,0.433,0.2,1.031-0.234,1.335
				c-4.838,3.395-7.973,8.711-8.599,14.583c-1.196,11.212,6.955,21.309,18.169,22.505c1.945,0.206,9.211,1.193,12.009,1.646
				l1.026,0.167l-2.339,9.482l-0.748,0.002c0,0-24.799,0.095-31.147,0.095c-4.272,0-6.045,5.464-6.616,7.857l41.529-0.009
				l10.309-16.539c-6.379-6.604-9.471-12.798-9.191-18.419c0.324-6.512,4.975-10.608,7.736-12.901l-5.361-5.603
				c-0.366-0.382-0.353-0.989,0.03-1.356c0.383-0.365,0.99-0.352,1.356,0.03l6.78,7.085l-1.251,1.045
				c-2.474,2.047-7.08,5.857-7.375,11.795c-0.26,5.215,2.826,11.109,9.169,17.519l0.532,0.537l-11.67,18.725L465.971,349.064z"/>
			<g>
				<path class="st2" d="M464.307,286.322l0.273-0.358c0.558-0.73,13.707-17.92,14.8-19.743l0.21-0.35l-0.107-0.393
					c-3.421-12.692,9.686-16.643,10.246-16.805c0.507-0.147,0.801-0.678,0.655-1.187c-0.148-0.508-0.676-0.801-1.185-0.656
					c-0.154,0.044-15.188,4.534-11.675,18.728c-1.584,2.325-9.683,12.984-14.197,18.887c-1.672,0.095-6.162,0.481-7.617,1.936
					c-1.541,1.54-2.797,9.051-3.146,11.317c-0.08,0.524,0.279,1.013,0.801,1.094c0.05,0.007,0.099,0.011,0.148,0.011
					c0.464,0,0.872-0.339,0.945-0.813c0.669-4.346,1.856-9.502,2.606-10.253c0.8-0.799,4.524-1.306,6.791-1.398L464.307,286.322z"/>
				<path class="st2" d="M493.768,261.07c-0.239-0.473-0.815-0.663-1.287-0.424c-0.474,0.238-0.663,0.815-0.425,1.288
					c3.358,6.661-1.159,10.932-1.622,11.345c-0.589,0.406-6.802,4.68-13.008,8.982c-13.005,9.015-13.563,9.401-13.413,10.113
					c-0.026,0.365-0.324,1.768-1.089,2.429c-0.005,0.002-0.009,0.002-0.014,0.002c-0.271,0-1.013-0.594-1.611-1.348
					c0.583-0.633,1.127-1,1.185-1.037c0.443-0.288,0.57-0.88,0.284-1.324c-0.287-0.446-0.88-0.573-1.325-0.286
					c-0.173,0.112-4.238,2.792-3.481,7.2c0.08,0.466,0.486,0.796,0.944,0.796c0.053,0,0.109-0.004,0.164-0.013
					c0.521-0.09,0.872-0.586,0.782-1.107c-0.168-0.974,0.009-1.841,0.336-2.577c0.59,0.654,1.509,1.477,2.483,1.597
					c0.086,0.011,0.17,0.015,0.253,0.015c0.454,0,0.874-0.154,1.227-0.453c1.134-0.964,1.634-2.586,1.748-3.561
					c2.151-1.642,16.229-11.385,25.669-17.878l0.077-0.059C491.705,274.714,497.922,269.311,493.768,261.07z"/>
			</g>
			<g>
				<circle class="st2" cx="456.708" cy="243.898" r="1.158"/>
			</g>
			<g>
				<circle class="st2" cx="457.397" cy="252.238" r="1.158"/>
			</g>
			<g>
				<circle class="st2" cx="463.702" cy="260.542" r="1.158"/>
			</g>
		</g>
	</g>
	<g>
		<path class="st2" d="M270.561,76.53V51.554h2.24V76.53h12.543v2.24h-12.543v23.296h-2.24V78.77h-37.856v-2.8l30.017-52.192h2.575
			L234.944,76.53H270.561z"/>
		<path class="st2" d="M366.768,62.866c0,25.2-11.088,39.2-31.023,39.2c-19.824,0-30.912-14-30.912-39.2
			c0-25.088,11.088-39.088,30.912-39.088C355.68,23.779,366.768,37.779,366.768,62.866z M307.072,62.866
			c0,23.744,10.192,36.959,28.672,36.959s28.784-13.216,28.784-36.959c0-23.744-10.305-36.848-28.784-36.848
			S307.072,39.122,307.072,62.866z"/>
		<path class="st2" d="M423.551,76.53V51.554h2.24V76.53h12.543v2.24h-12.543v23.296h-2.24V78.77h-37.856v-2.8l30.017-52.192h2.575
			L387.935,76.53H423.551z"/>
	</g>
</g>
</svg>
